# xmcd
#
# Track frame offsets: 
#        150
#        23601
#        41551
#        60015
#        81633
#        98680
#        120085
#        139273
#        161618
#        179548
#
# Disc length: 2636 seconds
#
# Revision: 0
# Processed by: cddbd v1.5.2PL0 Copyright (c) Steve Scherf et al.
# Submitted via: ExactAudioCopy v1.3
#
DISCID=740a4a0a
DTITLE=梁文音 - 駕駛座的風景
DYEAR=2018
DGENRE=Pop
TTITLE0=如歌
TTITLE1=懂事
TTITLE2=轉折
TTITLE3=副駕駛座的風景
TTITLE4=乖乖壞女孩
TTITLE5=和平分手
TTITLE6=還好
TTITLE7=給那年的自己
TTITLE8=那雙看見的手
TTITLE9=不期而遇
EXTD=
EXTT0=
EXTT1=
EXTT2=
EXTT3=
EXTT4=
EXTT5=
EXTT6=
EXTT7=
EXTT8=
EXTT9=
PLAYORDER=
